<svg width="73" height="43" viewBox="0 0 73 43" fill="none" xmlns="http://www.w3.org/2000/svg">
<path d="M0 0H73V42.2109H0V0Z" fill="#222222"/>
<path d="M20.8373 22.6767C20.8373 22.7787 20.8281 22.9131 20.8095 23.0799H14.8305C14.9139 23.7288 15.1966 24.2526 15.6787 24.6512C16.17 25.0405 16.7771 25.2352 17.5002 25.2352C18.3808 25.2352 19.09 24.9386 19.6276 24.3453L20.3646 25.2074C20.0308 25.5967 19.6137 25.8933 19.1131 26.0973C18.6218 26.3012 18.0703 26.4032 17.4585 26.4032C16.6798 26.4032 15.9892 26.2456 15.3867 25.9304C14.7841 25.606 14.316 25.1564 13.9823 24.5817C13.6578 24.0069 13.4956 23.358 13.4956 22.635C13.4956 21.9212 13.6532 21.277 13.9684 20.7022C14.2928 20.1275 14.7331 19.6826 15.2893 19.3674C15.8548 19.0429 16.4898 18.8807 17.1943 18.8807C17.8988 18.8807 18.5245 19.0429 19.0714 19.3674C19.6276 19.6826 20.0587 20.1275 20.3646 20.7022C20.6797 21.277 20.8373 21.9351 20.8373 22.6767ZM17.1943 20.007C16.5547 20.007 16.017 20.2017 15.5813 20.591C15.1549 20.9803 14.9046 21.4902 14.8305 22.1205H19.5581C19.4839 21.4994 19.229 20.9942 18.7933 20.6049C18.3669 20.2063 17.8339 20.007 17.1943 20.007Z" fill="white"/>
<path d="M29.4347 21.2723C30.0002 21.4299 30.4451 21.7173 30.7696 22.1344C31.094 22.5423 31.2562 23.0614 31.2562 23.6918C31.2562 24.5353 30.9364 25.1842 30.2968 25.6384C29.6664 26.0926 28.7441 26.3198 27.5297 26.3198H22.8856V16.5864H27.2517C28.364 16.5864 29.2215 16.8089 29.824 17.2539C30.4358 17.6988 30.7417 18.3153 30.7417 19.1032C30.7417 19.613 30.6212 20.0533 30.3802 20.4241C30.1485 20.7949 29.8333 21.0777 29.4347 21.2723ZM24.276 17.7127V20.8274H27.1265C27.8403 20.8274 28.3872 20.6976 28.7673 20.438C29.1566 20.1692 29.3513 19.7799 29.3513 19.27C29.3513 18.7602 29.1566 18.3755 28.7673 18.1159C28.3872 17.8471 27.8403 17.7127 27.1265 17.7127H24.276ZM27.4741 25.1935C28.2621 25.1935 28.8553 25.0637 29.2539 24.8041C29.6525 24.5446 29.8518 24.1367 29.8518 23.5805C29.8518 22.4959 29.0593 21.9537 27.4741 21.9537H24.276V25.1935H27.4741Z" fill="white"/>
<path d="M36.3709 26.4032C35.6386 26.4032 34.9804 26.241 34.3964 25.9165C33.8124 25.5921 33.3536 25.1471 33.0198 24.5817C32.6954 24.0069 32.5332 23.358 32.5332 22.635C32.5332 21.9119 32.6954 21.2677 33.0198 20.7022C33.3536 20.1275 33.8124 19.6826 34.3964 19.3674C34.9804 19.0429 35.6386 18.8807 36.3709 18.8807C37.1032 18.8807 37.7567 19.0429 38.3315 19.3674C38.9155 19.6826 39.3697 20.1275 39.6941 20.7022C40.0278 21.2677 40.1947 21.9119 40.1947 22.635C40.1947 23.358 40.0278 24.0069 39.6941 24.5817C39.3697 25.1471 38.9155 25.5921 38.3315 25.9165C37.7567 26.241 37.1032 26.4032 36.3709 26.4032ZM36.3709 25.2352C36.8437 25.2352 37.2654 25.1286 37.6362 24.9154C38.0163 24.6929 38.3129 24.387 38.5261 23.9977C38.7393 23.5991 38.8459 23.1448 38.8459 22.635C38.8459 22.1252 38.7393 21.6756 38.5261 21.2862C38.3129 20.8876 38.0163 20.5817 37.6362 20.3685C37.2654 20.1553 36.8437 20.0487 36.3709 20.0487C35.8981 20.0487 35.4717 20.1553 35.0917 20.3685C34.7209 20.5817 34.4242 20.8876 34.2017 21.2862C33.9885 21.6756 33.8819 22.1252 33.8819 22.635C33.8819 23.1448 33.9885 23.5991 34.2017 23.9977C34.4242 24.387 34.7209 24.6929 35.0917 24.9154C35.4717 25.1286 35.8981 25.2352 36.3709 25.2352Z" fill="white"/>
<path d="M45.1972 26.4032C44.4648 26.4032 43.8067 26.241 43.2227 25.9165C42.6387 25.5921 42.1798 25.1471 41.8461 24.5817C41.5217 24.0069 41.3594 23.358 41.3594 22.635C41.3594 21.9119 41.5217 21.2677 41.8461 20.7022C42.1798 20.1275 42.6387 19.6826 43.2227 19.3674C43.8067 19.0429 44.4648 18.8807 45.1972 18.8807C45.9295 18.8807 46.583 19.0429 47.1577 19.3674C47.7417 19.6826 48.1959 20.1275 48.5204 20.7022C48.8541 21.2677 49.021 21.9119 49.021 22.635C49.021 23.358 48.8541 24.0069 48.5204 24.5817C48.1959 25.1471 47.7417 25.5921 47.1577 25.9165C46.583 26.241 45.9295 26.4032 45.1972 26.4032ZM45.1972 25.2352C45.6699 25.2352 46.0917 25.1286 46.4625 24.9154C46.8426 24.6929 47.1392 24.387 47.3524 23.9977C47.5656 23.5991 47.6722 23.1448 47.6722 22.635C47.6722 22.1252 47.5656 21.6756 47.3524 21.2862C47.1392 20.8876 46.8426 20.5817 46.4625 20.3685C46.0917 20.1553 45.6699 20.0487 45.1972 20.0487C44.7244 20.0487 44.298 20.1553 43.9179 20.3685C43.5471 20.5817 43.2505 20.8876 43.028 21.2862C42.8148 21.6756 42.7082 22.1252 42.7082 22.635C42.7082 23.1448 42.8148 23.5991 43.028 23.9977C43.2505 24.387 43.5471 24.6929 43.9179 24.9154C44.298 25.1286 44.7244 25.2352 45.1972 25.2352Z" fill="white"/>
<path d="M54.232 21.9954L52.4522 23.803V26.3198H51.0617V16.5864H52.4522V22.0232L57.736 16.5864H59.3211L55.1636 20.9664L59.5853 26.3198H57.9585L54.232 21.9954Z" fill="white"/>
</svg>
