<svg width="15" height="13" viewBox="0 0 15 13" fill="none" xmlns="http://www.w3.org/2000/svg">
<mask id="path-1-inside-1_11043_813" fill="white">
<path d="M7.40552 2.36583L6.81447 1.75511C5.42553 0.319937 2.8818 0.815355 1.96335 2.61849C1.5314 3.46653 1.43427 4.69062 2.22222 6.25332C2.9811 7.75837 4.55867 9.56 7.40552 11.5231C10.2524 9.56 11.8299 7.75837 12.5888 6.25332C13.3768 4.69062 13.2796 3.46653 12.8477 2.61849C11.9292 0.815355 9.3855 0.319937 7.99656 1.75511L7.40552 2.36583ZM7.40552 12.5224C-5.23842 4.12355 3.51231 -2.43303 7.26064 1.03535C7.30982 1.08085 7.35813 1.12808 7.40552 1.17704C7.4529 1.12808 7.50121 1.08086 7.55038 1.03536C11.2987 -2.43304 20.0495 4.12355 7.40552 12.5224Z"/>
</mask>
<path d="M7.40552 2.36583L6.81447 1.75511C5.42553 0.319937 2.8818 0.815355 1.96335 2.61849C1.5314 3.46653 1.43427 4.69062 2.22222 6.25332C2.9811 7.75837 4.55867 9.56 7.40552 11.5231C10.2524 9.56 11.8299 7.75837 12.5888 6.25332C13.3768 4.69062 13.2796 3.46653 12.8477 2.61849C11.9292 0.815355 9.3855 0.319937 7.99656 1.75511L7.40552 2.36583ZM7.40552 12.5224C-5.23842 4.12355 3.51231 -2.43303 7.26064 1.03535C7.30982 1.08085 7.35813 1.12808 7.40552 1.17704C7.4529 1.12808 7.50121 1.08086 7.55038 1.03536C11.2987 -2.43304 20.0495 4.12355 7.40552 12.5224Z" fill="#8A8A8A"/>
<path d="M6.81447 1.75511L6.09588 2.45055V2.45055L6.81447 1.75511ZM7.40552 2.36583L6.68693 3.06127L7.40552 3.80378L8.1241 3.06127L7.40552 2.36583ZM1.96335 2.61849L1.07228 2.16462L1.96335 2.61849ZM2.22222 6.25332L3.11514 5.8031L2.22222 6.25332ZM7.40552 11.5231L6.83783 12.3464L7.40552 12.7378L7.97321 12.3464L7.40552 11.5231ZM12.5888 6.25332L11.6959 5.8031V5.8031L12.5888 6.25332ZM12.8477 2.61849L11.9566 3.07237V3.07237L12.8477 2.61849ZM7.99656 1.75511L7.27797 1.05967L7.27797 1.05967L7.99656 1.75511ZM7.40552 12.5224L6.85221 13.3554L7.40552 13.7229L7.95883 13.3554L7.40552 12.5224ZM7.26064 1.03535L7.93981 0.30137V0.301369L7.26064 1.03535ZM7.40552 1.17704L6.68693 1.87248L7.40552 2.61499L8.12411 1.87248L7.40552 1.17704ZM7.55038 1.03536L6.87121 0.301378L6.87121 0.301379L7.55038 1.03536ZM6.09588 2.45055L6.68693 3.06127L8.1241 1.67039L7.53306 1.05967L6.09588 2.45055ZM2.85442 3.07237C3.49588 1.81302 5.23589 1.56193 6.09588 2.45055L7.53306 1.05967C5.61518 -0.922052 2.26772 -0.18231 1.07228 2.16462L2.85442 3.07237ZM3.11514 5.8031C2.44602 4.47607 2.59018 3.59113 2.85442 3.07237L1.07228 2.16462C0.472617 3.34192 0.42252 4.90516 1.32931 6.70355L3.11514 5.8031ZM7.97321 10.6999C5.20767 8.79283 3.77271 7.10722 3.11514 5.8031L1.32931 6.70355C2.1895 8.40952 3.90968 10.3272 6.83783 12.3464L7.97321 10.6999ZM11.6959 5.8031C11.0383 7.10722 9.60336 8.79283 6.83783 10.6999L7.97321 12.3464C10.9014 10.3272 12.6215 8.40952 13.4817 6.70355L11.6959 5.8031ZM11.9566 3.07237C12.2209 3.59113 12.365 4.47607 11.6959 5.8031L13.4817 6.70355C14.3885 4.90516 14.3384 3.34192 13.7387 2.16462L11.9566 3.07237ZM8.71515 2.45055C9.57514 1.56193 11.3152 1.81302 11.9566 3.07237L13.7387 2.16462C12.5433 -0.18231 9.19586 -0.922052 7.27797 1.05967L8.71515 2.45055ZM8.1241 3.06127L8.71515 2.45055L7.27797 1.05967L6.68693 1.67039L8.1241 3.06127ZM7.95883 11.6894C4.87912 9.64369 3.20355 7.77456 2.41018 6.2378C1.62833 4.72334 1.70819 3.5567 2.08857 2.75915C2.90474 1.04792 5.25312 0.540191 6.58148 1.76934L7.93981 0.301369C5.51983 -1.93787 1.61868 -0.9015 0.283384 1.89817C-0.41196 3.35608 -0.383316 5.18659 0.633038 7.15527C1.63788 9.10165 3.60994 11.2017 6.85221 13.3554L7.95883 11.6894ZM6.58148 1.76934C6.61713 1.80232 6.65229 1.83669 6.68693 1.87248L8.1241 0.481607C8.06396 0.419461 8.0025 0.359381 7.93981 0.30137L6.58148 1.76934ZM8.12411 1.87248C8.15873 1.8367 8.1939 1.80233 8.22955 1.76934L6.87121 0.301379C6.80853 0.359383 6.74707 0.41946 6.68693 0.48161L8.12411 1.87248ZM8.22955 1.76934C9.55791 0.540191 11.9063 1.04792 12.7225 2.75915C13.1028 3.55669 13.1827 4.72334 12.4008 6.2378C11.6075 7.77456 9.93191 9.64368 6.85221 11.6894L7.95883 13.3554C11.2011 11.2017 13.1732 9.10165 14.178 7.15527C15.1943 5.18658 15.223 3.35607 14.5276 1.89817C13.1923 -0.901505 9.29119 -1.93787 6.87121 0.301378L8.22955 1.76934Z" fill="#8A8A8A" mask="url(#path-1-inside-1_11043_813)"/>
</svg>
