<svg width="18" height="18" viewBox="0 0 18 18" fill="none" xmlns="http://www.w3.org/2000/svg">
<path d="M16.9359 4.15998L14.0009 1.20999C13.8069 1.01702 13.5445 0.908691 13.2709 0.908691C12.9973 0.908691 12.7348 1.01702 12.5409 1.20999L2.13588 11.6L1.18588 15.7C1.15311 15.8499 1.15423 16.0052 1.18917 16.1546C1.22411 16.3039 1.29197 16.4436 1.38781 16.5634C1.48365 16.6832 1.60505 16.7801 1.74312 16.847C1.8812 16.9139 2.03247 16.9491 2.18588 16.95C2.25737 16.9572 2.3294 16.9572 2.40088 16.95L6.54588 16L16.9359 5.61999C17.1288 5.42604 17.2372 5.16358 17.2372 4.88999C17.2372 4.61639 17.1288 4.35393 16.9359 4.15998ZM6.04588 15.1L2.16088 15.915L3.04588 12.105L10.8309 4.34999L13.8309 7.34999L6.04588 15.1ZM14.5009 6.62499L11.5009 3.62498L13.2409 1.89499L16.1909 4.89499L14.5009 6.62499Z" fill="#222222"/>
</svg>
