<svg width="206" height="206" viewBox="0 0 206 206" fill="none" xmlns="http://www.w3.org/2000/svg">
<path d="M97.0011 47.3156C97.8948 40.2672 108.105 40.2672 108.999 47.3156C109.719 52.9972 117.2 54.5872 120.169 49.6898C123.852 43.6142 133.18 47.7672 131.129 54.5697C129.476 60.0531 135.663 64.5482 140.368 61.2818C146.204 57.2296 153.036 64.8175 148.396 70.1979C144.655 74.5349 148.479 81.1579 154.105 80.0873C161.085 78.7591 164.24 88.4699 157.813 91.4978C152.632 93.9386 153.431 101.544 159.006 102.855C165.923 104.48 164.856 114.635 157.752 114.787C152.027 114.909 149.663 122.182 154.224 125.647C159.881 129.945 154.776 138.788 148.225 136.037C142.944 133.82 137.827 139.504 140.584 144.524C144.004 150.751 135.743 156.753 130.877 151.576C126.955 147.403 119.969 150.513 120.445 156.22C121.037 163.301 111.049 165.423 108.71 158.715C106.824 153.307 99.1762 153.307 97.2903 158.715C94.9508 165.423 84.9634 163.301 85.5548 156.22C86.0315 150.513 79.045 147.403 75.1227 151.576C70.2568 156.753 61.9963 150.751 65.4164 144.524C68.1731 139.504 63.0559 133.82 57.7753 136.037C51.2244 138.788 46.1192 129.945 51.7765 125.647C56.3367 122.182 53.9734 114.909 48.2477 114.787C41.1445 114.635 40.0772 104.48 46.9936 102.855C52.5687 101.544 53.3681 93.9386 48.1872 91.4978C41.7599 88.4699 44.9151 78.7591 51.8947 80.0873C57.5208 81.1579 61.3446 74.5349 57.6044 70.1979C52.9643 64.8175 59.7965 57.2296 65.6325 61.2818C70.3367 64.5482 76.5237 60.0531 74.8709 54.5697C72.8204 47.7672 82.1481 43.6142 85.8314 49.6898C88.8003 54.5872 96.2808 52.9972 97.0011 47.3156Z" fill="#F34901"/>
<path d="M84.6 121.469L82.983 122.402L80.4049 117.937L75.8447 120.569L78.4228 125.035L76.799 125.972L71.0881 116.081L72.7119 115.143L75.0478 119.189L79.608 116.556L77.2721 112.51L78.8891 111.577L84.6 121.469ZM91.5147 112.461C91.874 113.083 92.1119 113.683 92.2281 114.259C92.3444 114.835 92.3433 115.38 92.2247 115.894C92.1036 116.403 91.8751 116.871 91.5391 117.3C91.2005 117.724 90.7561 118.095 90.2058 118.412C89.6916 118.709 89.1708 118.896 88.6433 118.972C88.1133 119.043 87.5953 119.005 87.0895 118.858C86.5855 118.704 86.1086 118.436 85.6585 118.052C85.2085 117.668 84.8037 117.165 84.4444 116.543C83.9678 115.717 83.7062 114.936 83.6597 114.199C83.615 113.455 83.7716 112.778 84.1293 112.169C84.4871 111.559 85.0336 111.042 85.7688 110.618C86.4589 110.219 87.1551 110.019 87.8573 110.017C88.5595 110.014 89.2261 110.216 89.8572 110.621C90.4882 111.027 91.0407 111.64 91.5147 112.461ZM86.0817 115.597C86.3968 116.143 86.7317 116.572 87.0865 116.885C87.4458 117.194 87.8251 117.372 88.2246 117.418C88.6214 117.46 89.0409 117.353 89.4829 117.098C89.9249 116.843 90.2272 116.533 90.3896 116.168C90.5495 115.799 90.5829 115.383 90.4897 114.92C90.3966 114.456 90.1924 113.952 89.8773 113.406C89.5622 112.86 89.2299 112.436 88.8803 112.132C88.5282 111.824 88.155 111.652 87.7607 111.615C87.3639 111.573 86.9422 111.682 86.4957 111.939C85.8371 112.32 85.4844 112.818 85.4374 113.434C85.3904 114.051 85.6051 114.772 86.0817 115.597ZM98.5974 105.963C98.8474 106.396 98.9188 106.827 98.8115 107.255C98.7062 107.677 98.4482 108.064 98.0376 108.415L98.0689 108.469C98.597 108.248 99.1077 108.185 99.601 108.279C100.094 108.373 100.487 108.673 100.779 109.178C101.026 109.606 101.138 110.05 101.114 110.509C101.092 110.961 100.905 111.417 100.552 111.88C100.201 112.335 99.654 112.777 98.9097 113.207L95.5133 115.168L91.1891 107.678L94.572 105.725C95.1313 105.402 95.6649 105.175 96.1727 105.044C96.6851 104.911 97.1483 104.911 97.5623 105.045C97.9764 105.179 98.3214 105.485 98.5974 105.963ZM99.0896 110.081C98.8761 109.711 98.5804 109.527 98.2025 109.529C97.829 109.528 97.3717 109.683 96.8304 109.996L95.1999 110.937L96.4343 113.075L98.0987 112.114C98.6038 111.823 98.9526 111.51 99.1449 111.177C99.3346 110.839 99.3162 110.473 99.0896 110.081ZM97.0624 107.038C96.8932 106.745 96.6577 106.593 96.3559 106.58C96.0516 106.564 95.6626 106.692 95.189 106.965L93.4772 107.954L94.5241 109.767L96.0193 108.904C96.5426 108.602 96.8943 108.299 97.0745 107.997C97.2566 107.687 97.2525 107.368 97.0624 107.038ZM101.054 101.983L103.261 105.805C103.331 105.927 103.416 106.085 103.517 106.28C103.619 106.468 103.722 106.667 103.826 106.877C103.927 107.084 104.019 107.274 104.101 107.449C104.184 107.624 104.245 107.754 104.282 107.841L104.707 99.8733L106.642 98.7561L110.966 106.246L109.444 107.125L107.261 103.343C107.146 103.144 107.018 102.912 106.876 102.645C106.738 102.375 106.606 102.115 106.479 101.864C106.356 101.61 106.261 101.418 106.192 101.289L105.777 109.242L103.849 110.355L99.5246 102.865L101.054 101.983ZM110.526 96.5139L112.264 99.5247L115.769 97.5013L114.031 94.4905L115.627 93.5686L119.951 101.058L118.355 101.98L116.488 98.7462L112.983 100.77L114.85 104.004L113.253 104.926L108.929 97.4358L110.526 96.5139ZM122.542 89.5764L124.294 88.5647L123.274 93.9532L128.882 95.9021L127.049 96.9607L121.626 95.0216L123.822 98.824L122.225 99.7459L117.901 92.2561L119.497 91.3342L121.595 94.9675L122.542 89.5764ZM128.63 85.8718C129.578 85.325 130.414 85.1219 131.138 85.2628C131.868 85.401 132.489 85.9144 133.002 86.803L135.912 91.8435L134.782 92.4959L133.864 91.6094L133.81 91.6407C133.755 92.0337 133.665 92.3833 133.541 92.6894C133.417 92.9955 133.231 93.2774 132.982 93.5349C132.741 93.7944 132.409 94.0466 131.985 94.2913C131.538 94.5492 131.092 94.6984 130.647 94.7392C130.198 94.7754 129.775 94.683 129.377 94.4619C128.979 94.2408 128.63 93.8709 128.33 93.3521C127.885 92.5808 127.837 91.8359 128.186 91.1172C128.539 90.396 129.286 89.6791 130.426 88.9667L131.698 88.1693L131.471 87.7769C131.172 87.2582 130.836 86.9586 130.465 86.8782C130.099 86.7952 129.697 86.88 129.259 87.1326C128.885 87.3488 128.553 87.6126 128.263 87.9239C127.974 88.2353 127.708 88.5663 127.466 88.9169L126.303 88.0906C126.556 87.6857 126.88 87.2883 127.274 86.8983C127.673 86.5056 128.125 86.1635 128.63 85.8718ZM132.269 89.1746L131.321 89.767C130.543 90.2524 130.064 90.7093 129.884 91.1378C129.705 91.5662 129.737 91.9925 129.982 92.4165C130.196 92.7863 130.462 92.9932 130.782 93.037C131.1 93.0762 131.439 92.9917 131.8 92.7834C132.35 92.4657 132.716 92.047 132.897 91.5275C133.08 91.0008 132.996 90.433 132.644 89.8241L132.269 89.1746Z" fill="white"/>
</svg>
