<svg width="18" height="18" viewBox="0 0 18 18" fill="none" xmlns="http://www.w3.org/2000/svg">
<path d="M1.7004 15.2423L1.07143 14.935L1.7004 15.2423ZM2.32936 15.5495C3.02596 14.1236 4.82129 12.4222 8.99995 12.4222V11.0222C4.37807 11.0222 2.04058 12.9512 1.07143 14.935L2.32936 15.5495ZM8.99995 12.4222C13.1786 12.4222 14.9739 14.1236 15.6705 15.5495L16.9285 14.935C15.9593 12.9512 13.6218 11.0222 8.99995 11.0222V12.4222ZM14.7777 16.4666H3.22217V17.8666H14.7777V16.4666ZM15.6705 15.5495C15.7801 15.7737 15.7405 15.9592 15.6009 16.1237C15.4419 16.3111 15.142 16.4666 14.7777 16.4666V17.8666C15.5181 17.8666 16.2215 17.5562 16.6684 17.0296C17.1347 16.48 17.3038 15.7033 16.9285 14.935L15.6705 15.5495ZM1.07143 14.935C0.696124 15.7033 0.865207 16.48 1.33153 17.0296C1.77843 17.5562 2.48183 17.8666 3.22217 17.8666V16.4666C2.85794 16.4666 2.55803 16.3111 2.39897 16.1237C2.25935 15.9592 2.21983 15.7737 2.32936 15.5495L1.07143 14.935Z" fill="#222222"/>
<path d="M12.9667 4.72209C12.9667 6.91282 11.1908 8.68875 9.00004 8.68875C6.80931 8.68875 5.03337 6.91282 5.03337 4.72209C5.03337 2.53136 6.80931 0.75542 9.00004 0.75542C11.1908 0.75542 12.9667 2.53136 12.9667 4.72209Z" stroke="#222222" stroke-width="1.4"/>
</svg>
