<svg width="67" height="61" viewBox="0 0 67 61" fill="none" xmlns="http://www.w3.org/2000/svg">
<path d="M56.8971 36.9265C57.4494 36.9265 57.8971 37.3742 57.8971 37.9265V45.9118H65.8824C66.4347 45.9118 66.8824 46.3595 66.8824 46.9118V50.902C66.8824 51.4543 66.4347 51.902 65.8824 51.902H57.8971V59.8873C57.8971 60.4396 57.4494 60.8873 56.8971 60.8873H52.9069C52.3546 60.8873 51.9069 60.4396 51.9069 59.8873V51.902H43.9216C43.3693 51.902 42.9216 51.4543 42.9216 50.902V46.9118C42.9216 46.3595 43.3693 45.9118 43.9216 45.9118H51.9069V37.9265C51.9069 37.3742 52.3546 36.9265 52.9069 36.9265H56.8971ZM57.9211 0.985352C59.5624 0.985352 60.8922 2.31817 60.8922 3.95948V29.9363C60.8922 30.4886 60.4445 30.9363 59.8922 30.9363H55.902C55.3497 30.9363 54.902 30.4886 54.902 29.9363V6.97555H6.98043V48.9039L36.2243 19.663C36.6148 19.2725 37.248 19.2725 37.6385 19.663L45.6238 27.6483C45.8113 27.8359 45.9167 28.0902 45.9167 28.3554V34.0002C45.9167 34.8911 44.8396 35.3372 44.2096 34.7073L36.9314 27.4291L15.4476 48.9069H35.9314C36.4837 48.9069 36.9314 49.3546 36.9314 49.9069V53.8971C36.9314 54.4494 36.4837 54.8971 35.9314 54.8971H3.96137C3.1731 54.8963 2.41739 54.5826 1.86028 54.025C1.30317 53.4673 0.990234 52.7113 0.990234 51.923V3.95948C0.995716 3.17291 1.31041 2.42006 1.86634 1.86357C2.42227 1.30708 3.1748 0.991625 3.96137 0.985352H57.9211ZM18.9608 12.9657C20.5495 12.9657 22.0732 13.5969 23.1965 14.7202C24.3199 15.8436 24.951 17.3672 24.951 18.9559C24.951 20.5446 24.3199 22.0683 23.1965 23.1916C22.0732 24.315 20.5495 24.9461 18.9608 24.9461C17.3721 24.9461 15.8485 24.315 14.7251 23.1916C13.6017 22.0683 12.9706 20.5446 12.9706 18.9559C12.9706 17.3672 13.6017 15.8436 14.7251 14.7202C15.8485 13.5969 17.3721 12.9657 18.9608 12.9657Z" fill="#969696"/>
</svg>
