<svg width="20" height="19" viewBox="0 0 20 19" fill="none" xmlns="http://www.w3.org/2000/svg">
<path d="M2.66634 9.99992H5.41634C5.90257 9.99992 6.36889 10.1931 6.7127 10.5369C7.05652 10.8807 7.24967 11.347 7.24967 11.8333V16.4166C7.24967 16.9028 7.05652 17.3691 6.7127 17.7129C6.36889 18.0568 5.90257 18.2499 5.41634 18.2499H2.66634C2.18011 18.2499 1.7138 18.0568 1.36998 17.7129C1.02616 17.3691 0.833008 16.9028 0.833008 16.4166V9.99992C0.833008 4.93717 4.93692 0.833252 9.99967 0.833252C15.0624 0.833252 19.1663 4.93717 19.1663 9.99992V16.4166C19.1663 16.9028 18.9732 17.3691 18.6294 17.7129C18.2856 18.0568 17.8192 18.2499 17.333 18.2499H14.583C14.0968 18.2499 13.6305 18.0568 13.2866 17.7129C12.9428 17.3691 12.7497 16.9028 12.7497 16.4166V11.8333C12.7497 11.347 12.9428 10.8807 13.2866 10.5369C13.6305 10.1931 14.0968 9.99992 14.583 9.99992H17.333C17.333 8.055 16.5604 6.18974 15.1851 4.81447C13.8099 3.4392 11.9446 2.66659 9.99967 2.66659C8.05475 2.66659 6.18949 3.4392 4.81422 4.81447C3.43896 6.18974 2.66634 8.055 2.66634 9.99992Z" fill="#F34901"/>
</svg>
