<svg width="18" height="20" viewBox="0 0 18 20" fill="none" xmlns="http://www.w3.org/2000/svg">
<path d="M9 13.6666H5.33333V6.33325H9C9.97246 6.33325 10.9051 6.71956 11.5927 7.40719C12.2804 8.09483 12.6667 9.02746 12.6667 9.99992C12.6667 10.9724 12.2804 11.905 11.5927 12.5926C10.9051 13.2803 9.97246 13.6666 9 13.6666ZM7.16667 8.16658V11.8333H9C9.48623 11.8333 9.95254 11.6401 10.2964 11.2963C10.6402 10.9525 10.8333 10.4861 10.8333 9.99992C10.8333 9.51369 10.6402 9.04737 10.2964 8.70356C9.95254 8.35974 9.48623 8.16658 9 8.16658H7.16667ZM11.75 2.66659H2.58333V17.3333H15.4167V6.33325H11.75V2.66659ZM0.75 1.74259C0.75 1.24025 1.15975 0.833252 1.66575 0.833252H12.6667L17.25 5.41659V18.2435C17.2508 18.3639 17.228 18.4832 17.1827 18.5948C17.1374 18.7063 17.0706 18.8079 16.9861 18.8936C16.9015 18.9793 16.801 19.0475 16.6901 19.0944C16.5792 19.1412 16.4601 19.1657 16.3397 19.1666H1.66025C1.41951 19.1649 1.1891 19.0686 1.01878 18.8984C0.848466 18.7283 0.75192 18.498 0.75 18.2573V1.74259Z" fill="#F34901"/>
</svg>
