<svg width="22" height="16" viewBox="0 0 22 16" fill="none" xmlns="http://www.w3.org/2000/svg">
<path d="M0 2.66667C0 1.19391 1.23122 0 2.75 0H19.25C20.7688 0 22 1.19391 22 2.66667V13.3333C22 14.8061 20.7688 16 19.25 16H2.75C1.23122 16 0 14.8061 0 13.3333V2.66667ZM2.75 1.33333C1.99061 1.33333 1.375 1.93029 1.375 2.66667V2.95587L11 8.55587L20.625 2.95587V2.66667C20.625 1.93029 20.0094 1.33333 19.25 1.33333H2.75ZM20.625 4.51079L14.083 8.31705L20.625 12.1514V4.51079ZM20.5776 13.6816L12.749 9.09317L11 10.1108L9.25096 9.09317L1.42238 13.6816C1.5803 14.2491 2.11486 14.6667 2.75 14.6667H19.25C19.8851 14.6667 20.4197 14.2491 20.5776 13.6816ZM1.375 12.1514L7.917 8.31705L1.375 4.51079V12.1514Z" fill="#222222"/>
</svg>
