<svg width="22" height="22" viewBox="0 0 22 22" fill="none" xmlns="http://www.w3.org/2000/svg">
<path d="M11 1.375C11.3647 1.375 11.7144 1.51987 11.9723 1.77773C12.2301 2.03559 12.375 2.38533 12.375 2.75V4.125H9.625V2.75C9.625 2.38533 9.76987 2.03559 10.0277 1.77773C10.2856 1.51987 10.6353 1.375 11 1.375Z" fill="black"/>
<path d="M5.5 16.5H16.5V9.625C16.5 8.16631 15.9205 6.76736 14.8891 5.73591C13.8576 4.70446 12.4587 4.125 11 4.125C9.54131 4.125 8.14236 4.70446 7.11091 5.73591C6.07946 6.76736 5.5 8.16631 5.5 9.625V16.5ZM11 2.75C12.8234 2.75 14.572 3.47433 15.8614 4.76364C17.1507 6.05295 17.875 7.80164 17.875 9.625V17.875H4.125V9.625C4.125 7.80164 4.84933 6.05295 6.13864 4.76364C7.42795 3.47433 9.17664 2.75 11 2.75V2.75Z" fill="#222222"/>
<path d="M2.0625 16.5H19.9375C20.3958 16.5 20.625 16.7292 20.625 17.1875C20.625 17.6458 20.3958 17.875 19.9375 17.875H2.0625C1.60417 17.875 1.375 17.6458 1.375 17.1875C1.375 16.7292 1.60417 16.5 2.0625 16.5ZM9.625 19.25H12.375C12.375 19.6147 12.2301 19.9644 11.9723 20.2223C11.7144 20.4801 11.3647 20.625 11 20.625C10.6353 20.625 10.2856 20.4801 10.0277 20.2223C9.76987 19.9644 9.625 19.6147 9.625 19.25Z" fill="black"/>
</svg>
