<svg width="46" height="46" viewBox="0 0 46 46" fill="none" xmlns="http://www.w3.org/2000/svg">
<circle cx="23" cy="23" r="23" fill="#EF3F3F"/>
<path d="M16.2929 16.2929C16.6834 15.9024 17.3166 15.9024 17.7071 16.2929L23 21.5858L28.2929 16.2929C28.6834 15.9024 29.3166 15.9024 29.7071 16.2929C30.0976 16.6834 30.0976 17.3166 29.7071 17.7071L24.4142 23L29.7071 28.2929C30.0976 28.6834 30.0976 29.3166 29.7071 29.7071C29.3166 30.0976 28.6834 30.0976 28.2929 29.7071L23 24.4142L17.7071 29.7071C17.3166 30.0976 16.6834 30.0976 16.2929 29.7071C15.9024 29.3166 15.9024 28.6834 16.2929 28.2929L21.5858 23L16.2929 17.7071C15.9024 17.3166 15.9024 16.6834 16.2929 16.2929Z" fill="white"/>
</svg>
