<svg width="20" height="20" viewBox="0 0 20 20" fill="none" xmlns="http://www.w3.org/2000/svg">
<path d="M16.6667 1.66666C17.1267 1.66666 17.5 2.03999 17.5 2.49999V5.63082L10.0008 13.1308L9.99583 16.6625L13.5342 16.6675L17.5 12.7017V17.5C17.5 17.96 17.1267 18.3333 16.6667 18.3333H3.33333C2.87333 18.3333 2.5 17.96 2.5 17.5V2.49999C2.5 2.03999 2.87333 1.66666 3.33333 1.66666H16.6667ZM18.1483 7.33999L19.3267 8.51832L12.845 15L11.665 14.9983L11.6667 13.8217L18.1483 7.33999ZM10 9.99999H5.83333V11.6667H10V9.99999ZM12.5 6.66666H5.83333V8.33332H12.5V6.66666Z" fill="#F34901"/>
</svg>
