<svg width="20" height="20" viewBox="0 0 20 20" fill="none" xmlns="http://www.w3.org/2000/svg">
<path d="M1.66669 18.3333C1.66669 16.5652 2.36907 14.8695 3.61931 13.6193C4.86955 12.3691 6.56524 11.6667 8.33335 11.6667C10.1015 11.6667 11.7972 12.3691 13.0474 13.6193C14.2976 14.8695 15 16.5652 15 18.3333H1.66669ZM8.33335 10.8333C5.57085 10.8333 3.33335 8.59584 3.33335 5.83334C3.33335 3.07084 5.57085 0.833344 8.33335 0.833344C11.0959 0.833344 13.3334 3.07084 13.3334 5.83334C13.3334 8.59584 11.0959 10.8333 8.33335 10.8333ZM14.4692 12.6942C15.7439 13.0218 16.8827 13.7432 17.7236 14.7557C18.5645 15.7682 19.0645 17.0202 19.1525 18.3333H16.6667C16.6667 16.1583 15.8334 14.1783 14.4692 12.6942ZM12.7834 10.7975C13.4817 10.1729 14.0401 9.40779 14.4222 8.5523C14.8042 7.69681 15.0011 6.77025 15 5.83334C15.0018 4.69457 14.7105 3.57449 14.1542 2.58084C15.098 2.7705 15.9471 3.28115 16.5571 4.02601C17.167 4.77086 17.5002 5.70395 17.5 6.66668C17.5002 7.2604 17.3736 7.84731 17.1284 8.38807C16.8833 8.92884 16.5255 9.41096 16.0788 9.80213C15.6322 10.1933 15.1071 10.4845 14.5387 10.6561C13.9704 10.8278 13.3719 10.876 12.7834 10.7975Z" fill="#F34901"/>
</svg>
