<svg width="20" height="20" viewBox="0 0 20 20" fill="none" xmlns="http://www.w3.org/2000/svg">
<path d="M16.6667 18.3333H5.41667C4.64312 18.3333 3.90125 18.026 3.35427 17.4791C2.80729 16.9321 2.5 16.1902 2.5 15.4167V4.16666C2.5 3.50362 2.76339 2.86773 3.23223 2.39889C3.70107 1.93005 4.33696 1.66666 5 1.66666H16.6667C16.8877 1.66666 17.0996 1.75445 17.2559 1.91073C17.4122 2.06701 17.5 2.27898 17.5 2.49999V17.5C17.5 17.721 17.4122 17.933 17.2559 18.0892C17.0996 18.2455 16.8877 18.3333 16.6667 18.3333ZM15.8333 16.6667V14.1667H5.41667C5.08515 14.1667 4.7672 14.2984 4.53278 14.5328C4.29836 14.7672 4.16667 15.0851 4.16667 15.4167C4.16667 15.7482 4.29836 16.0661 4.53278 16.3005C4.7672 16.535 5.08515 16.6667 5.41667 16.6667H15.8333Z" fill="#F34901"/>
</svg>
