<svg width="20" height="20" viewBox="0 0 20 20" fill="none" xmlns="http://www.w3.org/2000/svg">
<path d="M3.33331 18.3333C3.33331 16.5652 4.03569 14.8695 5.28593 13.6193C6.53618 12.3691 8.23187 11.6667 9.99998 11.6667C11.7681 11.6667 13.4638 12.3691 14.714 13.6193C15.9643 14.8695 16.6666 16.5652 16.6666 18.3333H15C15 17.0073 14.4732 15.7355 13.5355 14.7978C12.5978 13.8601 11.3261 13.3333 9.99998 13.3333C8.6739 13.3333 7.40213 13.8601 6.46445 14.7978C5.52676 15.7355 4.99998 17.0073 4.99998 18.3333H3.33331ZM9.99998 10.8333C7.23748 10.8333 4.99998 8.59584 4.99998 5.83334C4.99998 3.07084 7.23748 0.833344 9.99998 0.833344C12.7625 0.833344 15 3.07084 15 5.83334C15 8.59584 12.7625 10.8333 9.99998 10.8333ZM9.99998 9.16668C11.8416 9.16668 13.3333 7.67501 13.3333 5.83334C13.3333 3.99168 11.8416 2.50001 9.99998 2.50001C8.15831 2.50001 6.66665 3.99168 6.66665 5.83334C6.66665 7.67501 8.15831 9.16668 9.99998 9.16668Z" fill="white"/>
</svg>
