<svg width="20" height="20" viewBox="0 0 20 20" fill="none" xmlns="http://www.w3.org/2000/svg">
<path d="M1.66669 18.3333C1.66669 16.5652 2.36907 14.8695 3.61931 13.6193C4.86955 12.3691 6.56524 11.6667 8.33335 11.6667C10.1015 11.6667 11.7972 12.3691 13.0474 13.6193C14.2976 14.8695 15 16.5652 15 18.3333H13.3334C13.3334 17.0073 12.8066 15.7355 11.8689 14.7978C10.9312 13.8601 9.65944 13.3333 8.33335 13.3333C7.00727 13.3333 5.7355 13.8601 4.79782 14.7978C3.86014 15.7355 3.33335 17.0073 3.33335 18.3333H1.66669ZM8.33335 10.8333C5.57085 10.8333 3.33335 8.59584 3.33335 5.83334C3.33335 3.07084 5.57085 0.833344 8.33335 0.833344C11.0959 0.833344 13.3334 3.07084 13.3334 5.83334C13.3334 8.59584 11.0959 10.8333 8.33335 10.8333ZM8.33335 9.16668C10.175 9.16668 11.6667 7.67501 11.6667 5.83334C11.6667 3.99168 10.175 2.50001 8.33335 2.50001C6.49169 2.50001 5.00002 3.99168 5.00002 5.83334C5.00002 7.67501 6.49169 9.16668 8.33335 9.16668ZM15.2367 12.2525C16.4078 12.7799 17.4017 13.6344 18.0988 14.7131C18.796 15.7918 19.1668 17.0489 19.1667 18.3333H17.5C17.5002 17.37 17.2221 16.4271 16.6993 15.618C16.1764 14.8089 15.4309 14.1681 14.5525 13.7725L15.2359 12.2525H15.2367ZM14.6634 2.84418C15.503 3.19026 16.2208 3.77796 16.7259 4.5327C17.2309 5.28745 17.5004 6.17521 17.5 7.08334C17.5004 8.22695 17.0731 9.32937 16.3021 10.174C15.5312 11.0187 14.4722 11.5446 13.3334 11.6483V9.97084C13.9508 9.88241 14.5236 9.59836 14.9678 9.16039C15.4119 8.72243 15.7039 8.15361 15.801 7.53746C15.898 6.9213 15.795 6.29026 15.507 5.73697C15.219 5.18369 14.7612 4.7373 14.2009 4.46334L14.6634 2.84418Z" fill="white"/>
</svg>
