<svg width="15" height="13" viewBox="0 0 15 13" fill="none" xmlns="http://www.w3.org/2000/svg">
<mask id="path-1-inside-1_11368_1286" fill="white">
<path d="M7.40552 2.36595L6.81447 1.75523C5.42553 0.320059 2.8818 0.815477 1.96335 2.61862C1.5314 3.46665 1.43427 4.69074 2.22222 6.25345C2.9811 7.75849 4.55867 9.56012 7.40552 11.5232C10.2524 9.56012 11.8299 7.75849 12.5888 6.25345C13.3768 4.69074 13.2796 3.46665 12.8477 2.61862C11.9292 0.815477 9.3855 0.320059 7.99656 1.75523L7.40552 2.36595ZM7.40552 12.5225C-5.23842 4.12368 3.51231 -2.43291 7.26064 1.03548C7.30982 1.08097 7.35813 1.1282 7.40552 1.17717C7.4529 1.1282 7.50121 1.08098 7.55038 1.03548C11.2987 -2.43292 20.0495 4.12367 7.40552 12.5225Z"/>
</mask>
<path d="M7.40552 2.36595L6.81447 1.75523C5.42553 0.320059 2.8818 0.815477 1.96335 2.61862C1.5314 3.46665 1.43427 4.69074 2.22222 6.25345C2.9811 7.75849 4.55867 9.56012 7.40552 11.5232C10.2524 9.56012 11.8299 7.75849 12.5888 6.25345C13.3768 4.69074 13.2796 3.46665 12.8477 2.61862C11.9292 0.815477 9.3855 0.320059 7.99656 1.75523L7.40552 2.36595ZM7.40552 12.5225C-5.23842 4.12368 3.51231 -2.43291 7.26064 1.03548C7.30982 1.08097 7.35813 1.1282 7.40552 1.17717C7.4529 1.1282 7.50121 1.08098 7.55038 1.03548C11.2987 -2.43292 20.0495 4.12367 7.40552 12.5225Z" fill="#8A8A8A"/>
<path d="M6.81447 1.75523L6.09588 2.45067V2.45067L6.81447 1.75523ZM7.40552 2.36595L6.68693 3.06139L7.40552 3.8039L8.1241 3.06139L7.40552 2.36595ZM1.96335 2.61862L1.07228 2.16474L1.96335 2.61862ZM2.22222 6.25345L3.11514 5.80322L2.22222 6.25345ZM7.40552 11.5232L6.83783 12.3465L7.40552 12.738L7.97321 12.3465L7.40552 11.5232ZM12.5888 6.25345L11.6959 5.80322V5.80322L12.5888 6.25345ZM12.8477 2.61862L11.9566 3.07249V3.07249L12.8477 2.61862ZM7.99656 1.75523L7.27797 1.0598L7.27797 1.0598L7.99656 1.75523ZM7.40552 12.5225L6.85221 13.3555L7.40552 13.723L7.95883 13.3555L7.40552 12.5225ZM7.26064 1.03548L7.93981 0.301492V0.301491L7.26064 1.03548ZM7.40552 1.17717L6.68693 1.8726L7.40552 2.61511L8.12411 1.8726L7.40552 1.17717ZM7.55038 1.03548L6.87121 0.3015L6.87121 0.301501L7.55038 1.03548ZM6.09588 2.45067L6.68693 3.06139L8.1241 1.67052L7.53306 1.0598L6.09588 2.45067ZM2.85442 3.07249C3.49588 1.81314 5.23589 1.56205 6.09588 2.45067L7.53306 1.0598C5.61518 -0.92193 2.26772 -0.182188 1.07228 2.16474L2.85442 3.07249ZM3.11514 5.80322C2.44602 4.47619 2.59018 3.59126 2.85442 3.07249L1.07228 2.16474C0.472617 3.34204 0.42252 4.90528 1.32931 6.70367L3.11514 5.80322ZM7.97321 10.7C5.20767 8.79295 3.77271 7.10734 3.11514 5.80322L1.32931 6.70367C2.1895 8.40965 3.90968 10.3273 6.83783 12.3465L7.97321 10.7ZM11.6959 5.80322C11.0383 7.10734 9.60336 8.79295 6.83783 10.7L7.97321 12.3465C10.9014 10.3273 12.6215 8.40965 13.4817 6.70367L11.6959 5.80322ZM11.9566 3.07249C12.2209 3.59126 12.365 4.47619 11.6959 5.80322L13.4817 6.70367C14.3885 4.90528 14.3384 3.34204 13.7387 2.16474L11.9566 3.07249ZM8.71515 2.45067C9.57514 1.56205 11.3152 1.81314 11.9566 3.07249L13.7387 2.16474C12.5433 -0.182188 9.19586 -0.92193 7.27797 1.0598L8.71515 2.45067ZM8.1241 3.06139L8.71515 2.45067L7.27797 1.0598L6.68693 1.67052L8.1241 3.06139ZM7.95883 11.6895C4.87912 9.64381 3.20355 7.77468 2.41018 6.23792C1.62833 4.72346 1.70819 3.55682 2.08857 2.75927C2.90474 1.04804 5.25312 0.540313 6.58148 1.76946L7.93981 0.301491C5.51983 -1.93775 1.61868 -0.901378 0.283384 1.89829C-0.41196 3.3562 -0.383316 5.18671 0.633038 7.15539C1.63788 9.10177 3.60994 11.2018 6.85221 13.3555L7.95883 11.6895ZM6.58148 1.76946C6.61713 1.80245 6.65229 1.83681 6.68693 1.8726L8.1241 0.481729C8.06396 0.419583 8.0025 0.359503 7.93981 0.301492L6.58148 1.76946ZM8.12411 1.8726C8.15873 1.83682 8.1939 1.80245 8.22955 1.76947L6.87121 0.301501C6.80853 0.359506 6.74707 0.419582 6.68693 0.481732L8.12411 1.8726ZM8.22955 1.76947C9.55791 0.540313 11.9063 1.04804 12.7225 2.75927C13.1028 3.55682 13.1827 4.72346 12.4008 6.23792C11.6075 7.77468 9.93191 9.64381 6.85221 11.6895L7.95883 13.3555C11.2011 11.2018 13.1732 9.10177 14.178 7.15539C15.1943 5.18671 15.223 3.35619 14.5276 1.89829C13.1923 -0.901383 9.29119 -1.93775 6.87121 0.3015L8.22955 1.76947Z" fill="#8A8A8A" mask="url(#path-1-inside-1_11368_1286)"/>
</svg>
