<svg width="16" height="15" viewBox="0 0 16 15" fill="none" xmlns="http://www.w3.org/2000/svg">
<path d="M1.12673 2.52264C1.06576 2.62024 1.00852 2.72104 0.95531 2.82495C0.346864 4.0132 0.252842 5.66029 1.26831 7.66364C1.28151 7.68967 1.29489 7.71575 1.30846 7.7419C0.277239 5.75493 0.335722 4.11401 0.908505 2.91938C0.974431 2.78189 1.04739 2.64958 1.12673 2.52264ZM14.7317 7.66364C14.9526 7.22772 15.1211 6.80867 15.2431 6.40754C15.1138 6.8326 14.9324 7.27781 14.6915 7.7419C14.5803 7.95633 14.4563 8.17465 14.319 8.39666C14.473 8.14759 14.6103 7.90315 14.7317 7.66364ZM15.0915 2.91938C15.2602 3.27131 15.3843 3.66198 15.4491 4.08882C15.3785 3.62368 15.2374 3.2013 15.0447 2.82495C14.9915 2.72104 14.9342 2.62024 14.8733 2.52264C14.9526 2.64958 15.0256 2.78188 15.0915 2.91938ZM8.51429 1.51097C9.39212 0.702972 10.5395 0.403758 11.6502 0.529096C10.4721 0.397176 9.25304 0.74308 8.35838 1.66267C8.40944 1.61018 8.46144 1.55962 8.51429 1.51097Z" fill="#8A8A8A" stroke="#8A8A8A"/>
</svg>
