<svg width="20" height="19" viewBox="0 0 22 22" fill="none" xmlns="http://www.w3.org/2000/svg">
<path d="M16.882 18.297C15.1232 19.4126 13.0828 20.0033 11 20C5.60803 20 1.12203 16.12 0.18103 11C0.61106 8.67072 1.78266 6.5429 3.52103 4.93401L0.39203 1.80801L1.80703 0.393005L21.606 20.193L20.191 21.607L16.881 18.297H16.882ZM4.93503 6.35001C3.57604 7.5856 2.62935 9.20879 2.22303 11C2.53532 12.3665 3.16229 13.6411 4.05403 14.7226C4.94577 15.804 6.07766 16.6624 7.35958 17.2293C8.64151 17.7962 10.0381 18.0561 11.4381 17.9881C12.8382 17.9202 14.203 17.5264 15.424 16.838L13.396 14.81C12.5327 15.3538 11.5102 15.5881 10.4963 15.4744C9.48231 15.3608 8.53707 14.9059 7.8156 14.1844C7.09413 13.463 6.63926 12.5177 6.52559 11.5038C6.41193 10.4898 6.64621 9.46732 7.19003 8.60401L4.93503 6.35001ZM11.914 13.328L8.67203 10.086C8.49409 10.5389 8.45222 11.034 8.55154 11.5104C8.65085 11.9867 8.88705 12.4238 9.23115 12.7679C9.57525 13.112 10.0123 13.3482 10.4887 13.4475C10.9651 13.5468 11.4601 13.5049 11.913 13.327L11.914 13.328ZM19.807 15.592L18.376 14.162C19.0445 13.2093 19.5204 12.1352 19.777 11C19.5053 9.80973 18.9943 8.68715 18.2752 7.7005C17.5561 6.71385 16.6438 5.88373 15.5939 5.26061C14.544 4.63749 13.3783 4.23437 12.1678 4.07577C10.9572 3.91717 9.72704 4.00638 8.55203 4.33801L6.97403 2.76001C8.22103 2.27001 9.58003 2.00001 11 2.00001C16.392 2.00001 20.878 5.88001 21.819 11C21.5126 12.6657 20.8239 14.2376 19.807 15.592ZM10.723 6.50801C11.3595 6.46867 11.9971 6.56507 12.5936 6.79082C13.19 7.01657 13.7316 7.36652 14.1826 7.81746C14.6335 8.2684 14.9835 8.81003 15.2092 9.40646C15.435 10.0029 15.5314 10.6405 15.492 11.277L10.722 6.50801H10.723Z" fill="black"/>
</svg>
