<svg width="20" height="15" viewBox="0 0 20 15" fill="none" xmlns="http://www.w3.org/2000/svg">
<path d="M9.99996 0C14.4933 0 18.2316 3.23333 19.0158 7.5C18.2325 11.7667 14.4933 15 9.99996 15C5.50663 15 1.7683 11.7667 0.984131 7.5C1.76746 3.23333 5.50663 0 9.99996 0ZM9.99996 13.3333C11.6995 13.333 13.3486 12.7557 14.6773 11.696C16.0061 10.6363 16.9357 9.15689 17.3141 7.5C16.9343 5.84442 16.0041 4.36667 14.6755 3.30835C13.3469 2.25004 11.6986 1.67377 9.99996 1.67377C8.30138 1.67377 6.65304 2.25004 5.32444 3.30835C3.99585 4.36667 3.0656 5.84442 2.6858 7.5C3.06421 9.15689 3.99386 10.6363 5.32258 11.696C6.65131 12.7557 8.30041 13.333 9.99996 13.3333ZM9.99996 11.25C9.0054 11.25 8.05158 10.8549 7.34831 10.1516C6.64505 9.44839 6.24996 8.49456 6.24996 7.5C6.24996 6.50544 6.64505 5.55161 7.34831 4.84835C8.05158 4.14509 9.0054 3.75 9.99996 3.75C10.9945 3.75 11.9484 4.14509 12.6516 4.84835C13.3549 5.55161 13.75 6.50544 13.75 7.5C13.75 8.49456 13.3549 9.44839 12.6516 10.1516C11.9484 10.8549 10.9945 11.25 9.99996 11.25ZM9.99996 9.58333C10.5525 9.58333 11.0824 9.36384 11.4731 8.97314C11.8638 8.58244 12.0833 8.05253 12.0833 7.5C12.0833 6.94747 11.8638 6.41756 11.4731 6.02686C11.0824 5.63616 10.5525 5.41667 9.99996 5.41667C9.44743 5.41667 8.91753 5.63616 8.52683 6.02686C8.13612 6.41756 7.91663 6.94747 7.91663 7.5C7.91663 8.05253 8.13612 8.58244 8.52683 8.97314C8.91753 9.36384 9.44743 9.58333 9.99996 9.58333Z" fill="#222222"/>
</svg>
