<svg width="93" height="21" viewBox="0 0 93 21" fill="none" xmlns="http://www.w3.org/2000/svg">
<path d="M14.96 12.664C14.96 12.8693 14.9413 13.14 14.904 13.476H2.864C3.03199 14.7827 3.60133 15.8373 4.572 16.64C5.56133 17.424 6.784 17.816 8.24 17.816C10.0133 17.816 11.4413 17.2187 12.524 16.024L14.008 17.76C13.336 18.544 12.496 19.1413 11.488 19.552C10.4987 19.9627 9.38799 20.168 8.15599 20.168C6.58799 20.168 5.19733 19.8507 3.98399 19.216C2.77066 18.5627 1.82799 17.6573 1.15599 16.5C0.502661 15.3427 0.175995 14.036 0.175995 12.58C0.175995 11.1427 0.493328 9.84533 1.128 8.68799C1.78133 7.53066 2.66799 6.63466 3.78799 6C4.92666 5.34666 6.20533 5.01999 7.624 5.01999C9.04266 5.01999 10.3027 5.34666 11.404 6C12.524 6.63466 13.392 7.53066 14.008 8.68799C14.6427 9.84533 14.96 11.1707 14.96 12.664ZM7.624 7.28799C6.33599 7.28799 5.25333 7.67999 4.37599 8.46399C3.51733 9.24799 3.01333 10.2747 2.864 11.544H12.384C12.2347 10.2933 11.7213 9.276 10.844 8.49199C9.98533 7.68933 8.91199 7.28799 7.624 7.28799Z" fill="white"/>
<path d="M32.2725 9.836C33.4112 10.1533 34.3072 10.732 34.9605 11.572C35.6139 12.3933 35.9405 13.4387 35.9405 14.708C35.9405 16.4067 35.2965 17.7133 34.0085 18.628C32.7392 19.5427 30.8819 20 28.4365 20H19.0845V0.399994H27.8765C30.1165 0.399994 31.8432 0.847994 33.0565 1.74399C34.2885 2.63999 34.9045 3.88133 34.9045 5.46799C34.9045 6.49466 34.6619 7.38133 34.1765 8.12799C33.7099 8.87466 33.0752 9.444 32.2725 9.836ZM21.8845 2.66799V8.93999H27.6245C29.0619 8.93999 30.1632 8.67866 30.9285 8.156C31.7125 7.61466 32.1045 6.83066 32.1045 5.80399C32.1045 4.77733 31.7125 4.00266 30.9285 3.47999C30.1632 2.93866 29.0619 2.66799 27.6245 2.66799H21.8845ZM28.3245 17.732C29.9112 17.732 31.1059 17.4707 31.9085 16.948C32.7112 16.4253 33.1125 15.604 33.1125 14.484C33.1125 12.3 31.5165 11.208 28.3245 11.208H21.8845V17.732H28.3245Z" fill="white"/>
<path d="M46.2399 20.168C44.7653 20.168 43.4399 19.8413 42.2639 19.188C41.0879 18.5347 40.1639 17.6387 39.4919 16.5C38.8386 15.3427 38.5119 14.036 38.5119 12.58C38.5119 11.124 38.8386 9.82666 39.4919 8.68799C40.1639 7.53066 41.0879 6.63466 42.2639 6C43.4399 5.34666 44.7653 5.01999 46.2399 5.01999C47.7146 5.01999 49.0306 5.34666 50.1879 6C51.3639 6.63466 52.2786 7.53066 52.9319 8.68799C53.6039 9.82666 53.9399 11.124 53.9399 12.58C53.9399 14.036 53.6039 15.3427 52.9319 16.5C52.2786 17.6387 51.3639 18.5347 50.1879 19.188C49.0306 19.8413 47.7146 20.168 46.2399 20.168ZM46.2399 17.816C47.1919 17.816 48.0413 17.6013 48.7879 17.172C49.5533 16.724 50.1506 16.108 50.5799 15.324C51.0093 14.5213 51.2239 13.6067 51.2239 12.58C51.2239 11.5533 51.0093 10.648 50.5799 9.864C50.1506 9.06133 49.5533 8.44533 48.7879 8.01599C48.0413 7.58666 47.1919 7.37199 46.2399 7.37199C45.2879 7.37199 44.4293 7.58666 43.6639 8.01599C42.9173 8.44533 42.3199 9.06133 41.8719 9.864C41.4426 10.648 41.2279 11.5533 41.2279 12.58C41.2279 13.6067 41.4426 14.5213 41.8719 15.324C42.3199 16.108 42.9173 16.724 43.6639 17.172C44.4293 17.6013 45.2879 17.816 46.2399 17.816Z" fill="white"/>
<path d="M64.0134 20.168C62.5387 20.168 61.2134 19.8413 60.0374 19.188C58.8614 18.5347 57.9374 17.6387 57.2654 16.5C56.612 15.3427 56.2854 14.036 56.2854 12.58C56.2854 11.124 56.612 9.82666 57.2654 8.68799C57.9374 7.53066 58.8614 6.63466 60.0374 6C61.2134 5.34666 62.5387 5.01999 64.0134 5.01999C65.488 5.01999 66.804 5.34666 67.9614 6C69.1374 6.63466 70.052 7.53066 70.7054 8.68799C71.3774 9.82666 71.7134 11.124 71.7134 12.58C71.7134 14.036 71.3774 15.3427 70.7054 16.5C70.052 17.6387 69.1374 18.5347 67.9614 19.188C66.804 19.8413 65.488 20.168 64.0134 20.168ZM64.0134 17.816C64.9654 17.816 65.8147 17.6013 66.5614 17.172C67.3267 16.724 67.924 16.108 68.3534 15.324C68.7827 14.5213 68.9974 13.6067 68.9974 12.58C68.9974 11.5533 68.7827 10.648 68.3534 9.864C67.924 9.06133 67.3267 8.44533 66.5614 8.01599C65.8147 7.58666 64.9654 7.37199 64.0134 7.37199C63.0614 7.37199 62.2027 7.58666 61.4374 8.01599C60.6907 8.44533 60.0934 9.06133 59.6454 9.864C59.216 10.648 59.0014 11.5533 59.0014 12.58C59.0014 13.6067 59.216 14.5213 59.6454 15.324C60.0934 16.108 60.6907 16.724 61.4374 17.172C62.2027 17.6013 63.0614 17.816 64.0134 17.816Z" fill="white"/>
<path d="M82.2068 11.292L78.6228 14.932V20H75.8228V0.399994H78.6228V11.348L89.2628 0.399994H92.4548L84.0828 9.21999L92.9868 20H89.7108L82.2068 11.292Z" fill="white"/>
</svg>
